<svg width="39" height="49" viewBox="0 0 39 49" fill="none" xmlns="http://www.w3.org/2000/svg">
<path fill-rule="evenodd" clip-rule="evenodd" d="M0 0H38.5V45.0714C38.5 46.1285 38.0403 47.1322 37.239 47.8648C36.4393 48.596 35.3634 49 34.25 49H4.25C3.13657 49 2.06072 48.596 1.26096 47.8648C0.459709 47.1322 0 46.1285 0 45.0714V0ZM1 1V45.0714C1 45.8329 1.33047 46.5734 1.93573 47.1268C2.5425 47.6815 3.37431 48 4.25 48H34.25C35.1257 48 35.9575 47.6815 36.5643 47.1268C37.1695 46.5734 37.5 45.8329 37.5 45.0714V1H1ZM3.75 3.42857H34.75V11.2857H3.75V3.42857ZM4.75 4.42857V10.2857H33.75V4.42857H4.75ZM3.75 13.7143H34.75V21.5714H3.75V13.7143ZM4.75 14.7143V20.5714H33.75V14.7143H4.75ZM3.75 24H34.75V45.5714H3.75V24ZM4.75 25V44.5714H33.75V25H4.75Z" fill="#B83B5E"/>
</svg>
