<svg width="59" height="52" viewBox="0 0 59 52" fill="none" xmlns="http://www.w3.org/2000/svg">
<path fill-rule="evenodd" clip-rule="evenodd" d="M29.5 4C28.6786 4 27.9065 4.31401 27.3495 4.84866C26.7954 5.38065 26.5 6.08435 26.5 6.8C26.5 7.80205 27.0623 8.7091 27.9557 9.19514L29 9.76322V16H24.5C20.3634 16 16.4118 17.5783 13.5107 20.3634C10.6123 23.1458 9 26.9018 9 30.8V32.8H4.5C4.34165 32.8 4.20538 32.8612 4.1173 32.9457C4.03199 33.0276 4 33.1209 4 33.2V40.4C4 40.4791 4.03199 40.5724 4.1173 40.6543C4.20538 40.7388 4.34164 40.8 4.5 40.8H9V45.2C9 45.9157 9.29538 46.6194 9.84953 47.1513C10.4065 47.686 11.1786 48 12 48H47C47.8214 48 48.5935 47.686 49.1505 47.1513C49.7046 46.6194 50 45.9157 50 45.2V40.8H54.5C54.6584 40.8 54.7946 40.7388 54.8827 40.6543C54.968 40.5724 55 40.4791 55 40.4V33.2C55 33.1209 54.968 33.0276 54.8827 32.9457C54.7946 32.8612 54.6584 32.8 54.5 32.8H50V30.8C50 26.9018 48.3877 23.1458 45.4893 20.3634C42.5882 17.5783 38.6366 16 34.5 16H30V9.76322L31.0443 9.19514C31.9377 8.7091 32.5 7.80205 32.5 6.8C32.5 6.08435 32.2046 5.38065 31.6505 4.84866C31.0935 4.31401 30.3214 4 29.5 4ZM24.5794 1.96311C25.8978 0.697414 27.6692 0 29.5 0C31.3308 0 33.1022 0.697414 34.4206 1.96311C35.7418 3.23148 36.5 4.96957 36.5 6.8C36.5 8.89628 35.5284 10.7648 34.0123 12H34.5C39.646 12 44.5968 13.9617 48.2594 17.4778C51.4339 20.5253 53.4155 24.5264 53.8895 28.8H54.5C55.6677 28.8 56.8032 29.2446 57.6528 30.0602C58.5052 30.8785 59 32.0061 59 33.2V40.4C59 41.5939 58.5052 42.7216 57.6528 43.5398C56.8032 44.3554 55.6677 44.8 54.5 44.8H54V45.2C54 47.0304 53.2418 48.7685 51.9206 50.0369C50.6022 51.3026 48.8308 52 47 52H12C10.1692 52 8.39784 51.3026 7.0794 50.0369C5.75819 48.7685 5 47.0304 5 45.2V44.8H4.5C3.33228 44.8 2.19677 44.3554 1.34717 43.5398C0.494797 42.7216 0 41.5939 0 40.4V33.2C0 32.0061 0.494798 30.8784 1.34717 30.0602C2.19676 29.2446 3.33227 28.8 4.5 28.8H5.11054C5.58447 24.5264 7.56614 20.5253 10.7406 17.4778C14.4032 13.9617 19.354 12 24.5 12H24.9877C23.4716 10.7648 22.5 8.89628 22.5 6.8C22.5 4.96957 23.2582 3.23148 24.5794 1.96311ZM12.4455 28.7146C13.9984 27.2238 16.0877 26.4 18.25 26.4C20.4123 26.4 22.5016 27.2238 24.0545 28.7146C25.6101 30.208 26.5 32.2513 26.5 34.4C26.5 36.5487 25.6101 38.592 24.0545 40.0854C22.5016 41.5762 20.4123 42.4 18.25 42.4C16.0877 42.4 13.9984 41.5762 12.4455 40.0854C10.8899 38.592 10 36.5487 10 34.4C10 32.2513 10.8899 30.208 12.4455 28.7146ZM18.25 30.4C17.0971 30.4 16.007 30.8404 15.2156 31.6001C14.4271 32.3572 14 33.3661 14 34.4C14 35.4339 14.4271 36.4428 15.2156 37.1999C16.007 37.9596 17.0971 38.4 18.25 38.4C19.4029 38.4 20.493 37.9596 21.2844 37.1999C22.0729 36.4428 22.5 35.4339 22.5 34.4C22.5 33.3661 22.0729 32.3572 21.2844 31.6001C20.493 30.8404 19.4029 30.4 18.25 30.4ZM34.9455 28.7146C36.4984 27.2238 38.5877 26.4 40.75 26.4C42.9123 26.4 45.0016 27.2238 46.5545 28.7146C48.1101 30.208 49 32.2513 49 34.4C49 36.5487 48.1101 38.592 46.5545 40.0854C45.0016 41.5762 42.9123 42.4 40.75 42.4C38.5877 42.4 36.4984 41.5762 34.9455 40.0854C33.3899 38.592 32.5 36.5487 32.5 34.4C32.5 32.2513 33.3899 30.208 34.9455 28.7146ZM40.75 30.4C39.5971 30.4 38.507 30.8404 37.7156 31.6001C36.9271 32.3572 36.5 33.3661 36.5 34.4C36.5 35.4339 36.9271 36.4428 37.7156 37.1999C38.507 37.9596 39.5971 38.4 40.75 38.4C41.9029 38.4 42.993 37.9596 43.7844 37.1999C44.5729 36.4428 45 35.4339 45 34.4C45 33.3661 44.5729 32.3572 43.7844 31.6001C42.993 30.8404 41.9029 30.4 40.75 30.4Z" fill="#B83B5E"/>
</svg>
