<svg width="49" height="48" viewBox="0 0 49 48" fill="none" xmlns="http://www.w3.org/2000/svg">
<path d="M17.7643 20.4L29.2123 0.57606C25.6723 -0.214495 21.9991 -0.191076 18.4695 0.644551C14.9399 1.48018 11.6461 3.10621 8.83632 5.40005L17.6203 20.64L17.7643 20.4ZM46.9002 16.8C44.6922 9.79204 39.3402 4.17605 32.5003 1.58406L23.7163 16.8H46.9002ZM47.5242 19.2H29.5483L30.2443 20.4L41.6682 40.2C45.75 35.7937 48.0135 30.0063 48.0042 24C48.0042 22.344 47.8362 20.76 47.5242 19.2ZM15.7003 24L6.34033 7.80004C3.76874 10.5851 1.89654 13.942 0.87831 17.5934C-0.139916 21.2448 -0.274955 25.0861 0.484343 28.8H18.4603L15.7003 24V24ZM1.10834 31.2C3.31634 38.208 8.66832 43.8239 15.5083 46.4159L24.2923 31.2H1.10834V31.2ZM28.1563 31.2L18.7963 47.4239C22.3363 48.2145 26.0095 48.1911 29.5391 47.3554C33.0687 46.5198 36.3625 44.8938 39.1722 42.6L30.3883 27.36L28.1563 31.2V31.2Z" fill="#B83B5E"/>
</svg>
