<svg width="80" height="48" viewBox="0 0 80 48" fill="none" xmlns="http://www.w3.org/2000/svg">
<path d="M21.1689 2.16818L21.1689 2.16818C28.0398 1.42271 34.485 3.20713 39.1154 6.48094C43.7424 9.75238 46.4491 14.4081 46.2562 19.4949C45.9974 26.3145 41.8549 31.4549 33.5321 34.753C33.1913 34.8879 32.8684 34.9988 32.4816 35.1316C32.2733 35.2032 32.0465 35.2811 31.7884 35.3725L29.7399 36.0982L30.633 38.0796C30.9436 38.7686 31.2509 39.4559 31.5572 40.1409C32.2998 41.8014 33.0366 43.449 33.8003 45.0785C33.899 45.2893 33.945 45.4373 33.9641 45.5324C33.9685 45.5541 33.9712 45.5716 33.9728 45.5852C33.9393 45.6218 33.8637 45.693 33.7137 45.7882L33.7129 45.7887C33.4418 45.9608 33.2051 46.015 32.9399 45.9966C32.6398 45.9759 32.1897 45.8514 31.5579 45.4694L31.5576 45.4693C29.8128 44.4148 28.0679 43.3628 26.324 42.3114C20.9528 39.073 15.5914 35.8405 10.2718 32.56C3.29776 28.2589 0.573537 21.2342 2.71967 14.8563L2.71974 14.8561C4.93501 8.27032 11.9481 3.16851 21.1689 2.16818ZM47.549 35.172C51.0081 31.7246 53.2283 27.8211 54.1501 23.6979C55.0784 19.5456 54.664 15.2832 53.0111 11.1985C58.3475 9.65516 63.5074 9.89816 68.5737 12.0849L68.6958 12.1384C74.8864 14.8495 77.8425 19.593 77.9938 24.1403C78.1447 28.6763 75.5217 33.4977 69.5295 36.4296C64.9721 38.6594 60.3352 40.7539 55.6659 42.8631C53.5648 43.8122 51.4571 44.7642 49.3472 45.7329L49.3471 45.7329C48.7 46.03 48.3627 45.9707 48.1049 45.8023C48.1109 45.7926 48.1171 45.7825 48.1238 45.772C48.9632 44.4545 49.8135 43.1465 50.667 41.8334C51.0192 41.2914 51.372 40.7486 51.7249 40.204L52.8244 38.5066L51.1149 37.426L47.549 35.172Z" stroke="#B83B5E" stroke-width="4"/>
</svg>
