<svg width="55" height="48" viewBox="0 0 55 48" fill="none" xmlns="http://www.w3.org/2000/svg">
<path d="M53.5902 17.8593H37.8753C37.6052 17.8593 37.3842 18.0803 37.3842 18.3504V21.297C37.3842 21.5671 37.6052 21.7881 37.8753 21.7881H53.5902C53.8603 21.7881 54.0813 21.5671 54.0813 21.297V18.3504C54.0813 18.0803 53.8603 17.8593 53.5902 17.8593ZM45.3644 26.2079H37.8753C37.6052 26.2079 37.3842 26.4289 37.3842 26.699V29.6455C37.3842 29.9156 37.6052 30.1366 37.8753 30.1366H45.3644C45.6345 30.1366 45.8555 29.9156 45.8555 29.6455V26.699C45.8555 26.4289 45.6345 26.2079 45.3644 26.2079ZM24.8797 12.3652H22.2217C21.8411 12.3652 21.5342 12.6722 21.5342 13.0528V28.2766C21.5342 28.4976 21.6385 28.7002 21.8166 28.8291L30.957 35.4957C31.2639 35.7167 31.6937 35.6553 31.9146 35.3484L33.4923 33.1937V33.1875C33.7133 32.8806 33.6457 32.4509 33.3388 32.2299L25.5611 26.6069V13.0528C25.5673 12.6722 25.2542 12.3652 24.8797 12.3652Z" fill="#B83B5E"/>
<path d="M44.9841 33.9363H41.436C41.0922 33.9363 40.7668 34.1144 40.5827 34.409C39.8031 35.6429 38.8946 36.7847 37.851 37.8283C36.0524 39.6269 33.9591 41.0388 31.6325 42.021C29.22 43.04 26.6602 43.5556 24.0206 43.5556C21.3748 43.5556 18.815 43.04 16.4087 42.021C14.0821 41.0388 11.9888 39.6269 10.1902 37.8283C8.39158 36.0296 6.97969 33.9363 5.99751 31.6098C4.97849 29.2034 4.46284 26.6436 4.46284 23.9979C4.46284 21.3521 4.97849 18.7984 5.99751 16.3859C6.97969 14.0594 8.39158 11.9661 10.1902 10.1675C11.9888 8.36886 14.0821 6.95697 16.4087 5.97478C18.815 4.95577 21.381 4.44012 24.0206 4.44012C26.6664 4.44012 29.2262 4.95577 31.6325 5.97478C33.9591 6.95697 36.0524 8.36886 37.851 10.1675C38.8946 11.2111 39.8031 12.3528 40.5827 13.5867C40.7668 13.8814 41.0922 14.0594 41.436 14.0594H44.9841C45.4077 14.0594 45.6778 13.6174 45.4875 13.2429C41.4851 5.28111 33.3698 0.10623 24.3091 0.00187245C11.0435 -0.163871 0.0245966 10.6954 4.19381e-05 23.9488C-0.0245127 37.2267 10.7365 48 24.0145 48C33.1917 48 41.4421 42.8067 45.4875 34.7528C45.6778 34.3783 45.4015 33.9363 44.9841 33.9363Z" fill="#B83B5E"/>
</svg>
