<svg width="50" height="48" viewBox="0 0 50 48" fill="none" xmlns="http://www.w3.org/2000/svg">
<path d="M0 0V45.3333C0 46.0406 0.280951 46.7189 0.781048 47.219C1.28115 47.7191 1.95942 48 2.66667 48H48V42.6667H5.33333V0H0Z" fill="#B83B5E"/>
<path d="M32.7816 31.2185C33.029 31.4664 33.3229 31.663 33.6464 31.7972C33.9699 31.9313 34.3167 32.0004 34.6669 32.0004C35.0171 32.0004 35.3639 31.9313 35.6874 31.7972C36.0109 31.663 36.3048 31.4664 36.5522 31.2185L49.8856 17.8852L46.1149 14.1145L34.6669 25.5625L28.5522 19.4478C28.3048 19.2 28.0109 19.0033 27.6874 18.8692C27.3639 18.735 27.0171 18.666 26.6669 18.666C26.3167 18.666 25.9699 18.735 25.6464 18.8692C25.3229 19.0033 25.029 19.2 24.7816 19.4478L11.4482 32.7812L15.2189 36.5518L26.6669 25.1038L32.7816 31.2185Z" fill="#B83B5E"/>
</svg>
