<svg width="72" height="60" viewBox="0 0 72 60" fill="none" xmlns="http://www.w3.org/2000/svg">
<path d="M64.6154 9.23077H53.4066L50.7363 1.74725C50.5518 1.23518 50.2137 0.792542 49.7682 0.479815C49.3227 0.167088 48.7916 -0.00048018 48.2473 1.03354e-06H22.9615C21.8489 1.03354e-06 20.8516 0.70055 20.4808 1.74725L17.8022 9.23077H6.59341C2.95055 9.23077 0 12.1813 0 15.8242V53.4066C0 57.0495 2.95055 60 6.59341 60H64.6154C68.2582 60 71.2088 57.0495 71.2088 53.4066V15.8242C71.2088 12.1813 68.2582 9.23077 64.6154 9.23077ZM35.6044 46.8132C28.3187 46.8132 22.4176 40.9121 22.4176 33.6264C22.4176 26.3407 28.3187 20.4396 35.6044 20.4396C42.8901 20.4396 48.7912 26.3407 48.7912 33.6264C48.7912 40.9121 42.8901 46.8132 35.6044 46.8132ZM27.6923 33.6264C27.6923 35.7248 28.5259 37.7373 30.0097 39.2211C31.4935 40.7049 33.506 41.5385 35.6044 41.5385C37.7028 41.5385 39.7153 40.7049 41.1991 39.2211C42.6829 37.7373 43.5165 35.7248 43.5165 33.6264C43.5165 31.528 42.6829 29.5155 41.1991 28.0317C39.7153 26.5479 37.7028 25.7143 35.6044 25.7143C33.506 25.7143 31.4935 26.5479 30.0097 28.0317C28.5259 29.5155 27.6923 31.528 27.6923 33.6264Z" fill="#B83B5E"/>
</svg>
