<svg width="60" height="60" viewBox="0 0 60 60" fill="none" xmlns="http://www.w3.org/2000/svg">
<path d="M9.15865 51.5786C6.29334 48.8112 4.00787 45.5009 2.4356 41.8408C0.863334 38.1807 0.0357472 34.2441 0.0011327 30.2607C-0.0334818 26.2773 0.725569 22.3269 2.234 18.64C3.74242 14.9531 5.97002 11.6036 8.7868 8.7868C11.6036 5.97002 14.9531 3.74242 18.64 2.234C22.3269 0.725569 26.2773 -0.0334818 30.2607 0.0011327C34.2441 0.0357472 38.1807 0.863334 41.8408 2.4356C45.5009 4.00787 48.8112 6.29334 51.5786 9.15865C57.0434 14.8167 60.0672 22.3948 59.9989 30.2607C59.9305 38.1266 56.7754 45.651 51.2132 51.2132C45.651 56.7754 38.1266 59.9305 30.2607 59.9989C22.3948 60.0672 14.8167 57.0434 9.15865 51.5786V51.5786ZM47.3486 47.3486C51.852 42.8453 54.382 36.7374 54.382 30.3686C54.382 23.9999 51.852 17.892 47.3486 13.3886C42.8453 8.88527 36.7374 6.3553 30.3686 6.3553C23.9999 6.3553 17.892 8.88527 13.3886 13.3886C8.88527 17.892 6.3553 23.9999 6.3553 30.3686C6.3553 36.7374 8.88527 42.8453 13.3886 47.3486C17.892 51.852 23.9999 54.382 30.3686 54.382C36.7374 54.382 42.8453 51.852 47.3486 47.3486V47.3486ZM27.3686 33.3686V27.3686H33.3686V45.3686H27.3686V33.3686ZM27.3686 15.3686H33.3686V21.3686H27.3686V15.3686Z" fill="#B83B5E"/>
</svg>
