<svg width="59" height="60" viewBox="0 0 59 60" fill="none" xmlns="http://www.w3.org/2000/svg">
<path d="M30.776 13.3256H27.4202C27.1132 13.3256 26.862 13.5768 26.862 13.8837V33.0907C26.862 33.2721 26.9457 33.4395 27.0922 33.5442L38.6248 41.9651C38.876 42.1465 39.2248 42.0977 39.4062 41.8465L41.4015 39.1256C41.5899 38.8674 41.5341 38.5186 41.2829 38.3442L31.3341 31.1512V13.8837C31.3341 13.5768 31.0829 13.3256 30.776 13.3256ZM46.1109 18.5721L57.0504 21.2442C57.3992 21.3279 57.7411 21.0628 57.7411 20.707L57.7969 9.43954C57.7969 8.9721 57.2597 8.70698 56.8969 9.00001L45.9015 17.5884C45.8184 17.6527 45.7552 17.7391 45.719 17.8377C45.6829 17.9364 45.6753 18.0432 45.6971 18.146C45.719 18.2488 45.7694 18.3433 45.8426 18.4186C45.9158 18.494 46.0088 18.5472 46.1109 18.5721V18.5721ZM57.8108 39.5791L53.855 38.2186C53.7171 38.1713 53.5662 38.1799 53.4345 38.2425C53.3028 38.3051 53.2008 38.4167 53.1504 38.5535C53.0178 38.9093 52.8783 39.2581 52.7318 39.607C51.4899 42.5442 49.7109 45.1884 47.4364 47.4558C45.1873 49.712 42.5217 51.5103 39.5876 52.7512C36.548 54.0363 33.2807 54.6959 29.9806 54.6907C26.6457 54.6907 23.4155 54.0419 20.3736 52.7512C17.4395 51.5103 14.774 49.712 12.5248 47.4558C10.2574 45.1884 8.47829 42.5442 7.22946 39.607C5.95143 36.5657 5.29665 33.2989 5.30387 30C5.30387 26.6651 5.95271 23.4279 7.24341 20.3861C8.48527 17.4488 10.2643 14.8047 12.5388 12.5372C14.7879 10.2811 17.4535 8.48273 20.3876 7.24187C23.4155 5.95117 26.6527 5.30233 29.9876 5.30233C33.3225 5.30233 36.5527 5.95117 39.5946 7.24187C42.5287 8.48273 45.1942 10.2811 47.4434 12.5372C48.155 13.2558 48.8248 14.0023 49.4388 14.7907L53.6109 11.5256C48.1202 4.50698 39.5736 -0.00696867 29.9736 8.07586e-06C13.2574 0.00698482 -0.165892 13.5837 0.00154962 30.307C0.168991 46.7372 13.5295 60 29.9876 60C42.9295 60 53.9527 51.7953 58.1527 40.3047C58.2574 40.0116 58.1039 39.6837 57.8108 39.5791V39.5791Z" fill="#B83B5E"/>
</svg>
